<?xml version="1.0" encoding="utf-8"?>
<!-- Generator: Adobe Illustrator 17.1.0, SVG Export Plug-In . SVG Version: 6.00 Build 0)  -->
<!DOCTYPE svg PUBLIC "-//W3C//DTD SVG 1.1//EN" "http://www.w3.org/Graphics/SVG/1.1/DTD/svg11.dtd">
<svg version="1.1" id="Layer_1" xmlns="http://www.w3.org/2000/svg" xmlns:xlink="http://www.w3.org/1999/xlink" x="0px" y="0px"
	 viewBox="0 0 144 144" enable-background="new 0 0 144 144" xml:space="preserve">
<path fill="#231F20" d="M72,0C32.235,0,0,32.235,0,72c0,39.764,32.235,72,72,72s72-32.236,72-72C144,32.235,111.765,0,72,0z
	 M72,129.6c-31.812,0-57.6-25.788-57.6-57.6c0-31.812,25.788-57.6,57.6-57.6s57.6,25.788,57.6,57.6
	C129.6,103.812,103.812,129.6,72,129.6z M79.2,100.8V86.4h-36V57.6h36V43.2L108,72L79.2,100.8z"/>
</svg>
