<?xml version="1.0" encoding="utf-8"?>
<!-- Generator: Adobe Illustrator 17.1.0, SVG Export Plug-In . SVG Version: 6.00 Build 0)  -->
<!DOCTYPE svg PUBLIC "-//W3C//DTD SVG 1.1//EN" "http://www.w3.org/Graphics/SVG/1.1/DTD/svg11.dtd">
<svg version="1.1" id="Layer_1" xmlns="http://www.w3.org/2000/svg" xmlns:xlink="http://www.w3.org/1999/xlink" x="0px" y="0px"
	 viewBox="0 0 144 144" enable-background="new 0 0 144 144" xml:space="preserve">
<path fill="#231F20" d="M0,72c0,39.765,32.235,72,72,72c39.764,0,72-32.235,72-72S111.764,0,72,0C32.235,0,0,32.235,0,72z M129.6,72
	c0,31.812-25.788,57.6-57.6,57.6c-31.812,0-57.6-25.788-57.6-57.6S40.188,14.4,72,14.4C103.812,14.4,129.6,40.188,129.6,72z
	 M100.8,64.8H86.4v36H57.6v-36H43.2L72,36L100.8,64.8z"/>
</svg>
