<?xml version="1.0" encoding="utf-8"?>
<!-- Generator: Adobe Illustrator 17.1.0, SVG Export Plug-In . SVG Version: 6.00 Build 0)  -->
<!DOCTYPE svg PUBLIC "-//W3C//DTD SVG 1.1//EN" "http://www.w3.org/Graphics/SVG/1.1/DTD/svg11.dtd">
<svg version="1.1" id="Layer_1" xmlns="http://www.w3.org/2000/svg" xmlns:xlink="http://www.w3.org/1999/xlink" x="0px" y="0px"
	 viewBox="0 0 144 144" enable-background="new 0 0 144 144" xml:space="preserve">
<path fill="#231F20" d="M72,144c39.765,0,72-32.235,72-72c0-39.764-32.235-72-72-72S0,32.236,0,72C0,111.765,32.235,144,72,144z
	 M72,14.4c31.812,0,57.6,25.788,57.6,57.6c0,31.812-25.788,57.6-57.6,57.6S14.4,103.812,14.4,72C14.4,40.188,40.188,14.4,72,14.4z
	 M64.8,43.2v14.4h36v28.8h-36v14.4L36,72L64.8,43.2z"/>
</svg>
