<?xml version="1.0" encoding="utf-8"?>
<!-- Generator: Adobe Illustrator 17.1.0, SVG Export Plug-In . SVG Version: 6.00 Build 0)  -->
<!DOCTYPE svg PUBLIC "-//W3C//DTD SVG 1.1//EN" "http://www.w3.org/Graphics/SVG/1.1/DTD/svg11.dtd">
<svg version="1.1" id="Layer_1" xmlns="http://www.w3.org/2000/svg" xmlns:xlink="http://www.w3.org/1999/xlink" x="0px" y="0px"
	 viewBox="0 0 144 144" enable-background="new 0 0 144 144" xml:space="preserve">
<path fill="#231F20" d="M144,72c0-39.765-32.235-72-72-72C32.236,0,0,32.235,0,72c0,39.765,32.236,72,72,72
	C111.765,144,144,111.765,144,72z M14.4,72c0-31.812,25.788-57.6,57.6-57.6c31.812,0,57.6,25.788,57.6,57.6s-25.788,57.6-57.6,57.6
	C40.188,129.6,14.4,103.812,14.4,72z M43.2,79.2h14.4v-36h28.8v36h14.4L72,108L43.2,79.2z"/>
</svg>
