<?xml version="1.0" encoding="utf-8"?>
<!-- Generator: Adobe Illustrator 17.1.0, SVG Export Plug-In . SVG Version: 6.00 Build 0)  -->
<!DOCTYPE svg PUBLIC "-//W3C//DTD SVG 1.1//EN" "http://www.w3.org/Graphics/SVG/1.1/DTD/svg11.dtd">
<svg version="1.1" id="Layer_1" xmlns="http://www.w3.org/2000/svg" xmlns:xlink="http://www.w3.org/1999/xlink" x="0px" y="0px"
	 viewBox="0 0 792 612" enable-background="new 0 0 792 612" xml:space="preserve">
<path d="M682.4,194.5l-57.9,57.9L447.6,75.5l57.9-57.9C517.3,5.8,533-0.7,549.6-0.7c16.7,0,32.3,6.5,44.1,18.3l88.7,88.7
	C706.8,130.6,706.8,170.2,682.4,194.5z M413.9,109.2l176.9,176.9L326.7,550.2c-8.6,8.6-19.3,14.6-31,17.6L119,612
	c-2,0.5-4.1,0.8-6.2,0.8c-7.9,0-15.2-3.6-20.1-9.8c-4.9-6.2-6.6-14.2-4.6-21.9l44.2-176.7c2.9-11.7,9-22.5,17.6-31L413.9,109.2z
	 M286.2,527.8l-114-114c0,0.2-0.1,0.3-0.1,0.4l-26,104.2l35.6,35.6l104.2-26C285.9,527.9,286,527.8,286.2,527.8z"/>
</svg>
