<?xml version="1.0" encoding="utf-8"?>
<!-- Generator: Adobe Illustrator 17.1.0, SVG Export Plug-In . SVG Version: 6.00 Build 0)  -->
<!DOCTYPE svg PUBLIC "-//W3C//DTD SVG 1.1//EN" "http://www.w3.org/Graphics/SVG/1.1/DTD/svg11.dtd">
<svg version="1.1" id="Layer_1" xmlns="http://www.w3.org/2000/svg" xmlns:xlink="http://www.w3.org/1999/xlink" x="0px" y="0px"
	 viewBox="0 0 144 144" enable-background="new 0 0 144 144" xml:space="preserve">
<path d="M116.485,99.515c4.687,4.687,4.687,12.284,0,16.971C114.143,118.828,111.071,120,108,120s-6.143-1.172-8.485-3.515
	L72,88.971l-27.515,27.515C42.142,118.828,39.071,120,36,120s-6.142-1.172-8.485-3.515c-4.686-4.687-4.686-12.284,0-16.971
	L55.029,72L27.515,44.485c-4.686-4.687-4.686-12.284,0-16.971c4.687-4.687,12.284-4.687,16.971,0L72,55.029l27.515-27.515
	c4.686-4.687,12.285-4.687,16.971,0c4.687,4.687,4.687,12.284,0,16.971L88.971,72L116.485,99.515z"/>
</svg>
